<?xml version="1.0" encoding="iso-8859-1"?>
<!-- Uploaded to: SVG Repo, www.svgrepo.com, Transformed by: SVG Repo Tools -->
<svg version="1.1" id="Layer_1" xmlns="http://www.w3.org/2000/svg" xmlns:xlink="http://www.w3.org/1999/xlink" 
	 viewBox="0 0 512 512" xml:space="preserve">
<path style="fill:#BFE4F8;" d="M460.058,512H0V51.942h460.058V512z"/>
<path style="fill:#93C7EF;" d="M460.058,512H230.029V51.942h230.029V512z"/>
<polygon style="fill:#1E2E3B;" points="270.64,325.31 207.768,293.829 186.69,241.36 428.05,0 512,83.95 "/>
<polygon style="fill:#FFFFFF;" points="270.64,325.31 165.701,346.298 186.69,241.36 "/>
<g>
	
		<rect x="347.702" y="82.677" transform="matrix(-0.7071 -0.7071 0.7071 -0.7071 620.6981 466.9776)" style="fill:#5A8BB0;" width="118.723" height="44.521"/>
	
		<rect x="185.007" y="245.374" transform="matrix(-0.7071 -0.7071 0.7071 -0.7071 227.9179 629.6752)" style="fill:#5A8BB0;" width="118.723" height="44.521"/>
</g>
<path style="fill:#FFFFFF;" d="M371.014,422.957V512l89.043-89.043H371.014z"/>
<path style="fill:#BFE4F8;" d="M460.058,422.957L371.014,512h89.043V422.957z"/>
<g>
</g>
<g>
</g>
<g>
</g>
<g>
</g>
<g>
</g>
<g>
</g>
<g>
</g>
<g>
</g>
<g>
</g>
<g>
</g>
<g>
</g>
<g>
</g>
<g>
</g>
<g>
</g>
<g>
</g>
</svg>